<?xml version="1.0" encoding="UTF-8" standalone="no"?><!-- Generator: Gravit.io --><svg xmlns="http://www.w3.org/2000/svg" xmlns:xlink="http://www.w3.org/1999/xlink" style="isolation:isolate" viewBox="0 0 612 158.4" width="612pt" height="158.4pt"><defs><clipPath id="_clipPath_281Tyeix1HkbbzEIkSTFUrKJdaLGZLwR"><rect width="612" height="158.4"/></clipPath></defs><g clip-path="url(#_clipPath_281Tyeix1HkbbzEIkSTFUrKJdaLGZLwR)"><g><clipPath id="_clipPath_unHRdEiG4r9pUZvKdAtSgJOdgYXC81eI"><path d=" M 2 189.2 L 608 189.2 L 608 -29.878 L 2 -29.878 L 2 189.2 L 2 189.2 Z " fill-rule="evenodd" fill="rgb(255,255,255)"/></clipPath><g clip-path="url(#_clipPath_unHRdEiG4r9pUZvKdAtSgJOdgYXC81eI)"><g><g><path d=" M 51.309 58.771 L 74.121 58.771 L 51.309 84.143 L 28.497 84.143 L 51.309 58.771 Z " fill-rule="evenodd" fill="rgb(0,125,197)"/><path d=" M 51.309 109.511 L 74.121 109.511 L 51.309 84.141 L 28.497 84.141 L 51.309 109.511 Z " fill-rule="evenodd" fill="rgb(247,147,29)"/><path d=" M 91.728 109.528 L 91.728 67.169 L 76.682 67.169 L 76.682 58.179 L 116.254 58.179 L 116.254 67.169 L 101.214 67.169 L 101.214 109.528 L 91.728 109.528 Z " fill-rule="evenodd" fill="rgb(0,125,197)"/><path d=" M 131.117 91.373 L 146.052 91.373 L 138.665 73.089 L 131.116 91.373 L 131.117 91.373 Z  M 113.641 109.528 L 132.364 66.68 L 120.591 66.68 L 120.591 58.179 L 141.85 58.179 L 163.599 109.528 L 153.39 109.528 L 149.479 99.881 L 127.761 99.881 L 123.809 109.528 L 113.641 109.528 L 113.641 109.528 Z " fill-rule="evenodd" fill="rgb(0,125,197)"/><path d=" M 176.109 67.169 L 176.109 100.533 L 188.291 100.533 C 193.357 100.533 197.639 99.005 201.129 95.955 C 204.614 92.902 206.367 88.871 206.367 83.851 C 206.367 78.836 204.614 74.804 201.129 71.749 C 197.639 68.698 193.357 67.169 188.291 67.169 L 176.109 67.169 Z  M 166.619 109.527 L 166.619 58.179 L 188.291 58.179 C 196.085 58.179 202.568 60.495 207.749 65.126 C 213.148 69.923 215.85 76.163 215.85 83.85 C 215.85 91.429 213.123 97.642 207.665 102.493 C 202.435 107.185 195.978 109.526 188.291 109.526 L 166.619 109.526 L 166.619 109.527 Z " fill-rule="evenodd" fill="rgb(0,125,197)"/><path d=" M 220.419 88.594 L 220.419 58.179 L 229.905 58.179 L 229.905 86.55 C 229.905 90.751 231.053 94.262 233.341 97.101 C 235.851 100.095 239.144 101.595 243.238 101.595 C 247.378 101.595 250.68 100.095 253.129 97.101 C 255.419 94.317 256.561 90.802 256.561 86.55 L 256.561 58.179 L 266.051 58.179 L 266.051 88.594 C 266.051 95.027 263.867 100.306 259.504 104.414 C 255.144 108.537 249.719 110.591 243.238 110.591 C 236.802 110.591 231.394 108.52 227.006 104.379 C 222.617 100.234 220.419 94.978 220.419 88.595 L 220.419 88.594 Z " fill-rule="evenodd" fill="rgb(0,125,197)"/><path d=" M 36.637 12.681 L 65.98 12.681 C 66.906 12.681 67.658 13.432 67.658 14.361 C 67.658 15.287 66.905 16.039 65.98 16.039 L 36.637 16.039 C 35.711 16.039 34.959 15.287 34.959 14.361 C 34.959 13.432 35.711 12.681 36.637 12.681 Z  M 90.501 124.169 L 90.501 124.35 C 90.501 129.833 86.057 134.28 80.572 134.28 L 67.544 134.28 L 66.488 148.512 L 40.658 134.28 L 22.042 134.28 C 16.559 134.28 12.112 129.833 12.112 124.35 L 12.112 33.549 C 12.112 28.06 16.559 23.613 22.042 23.613 L 80.57 23.613 C 86.055 23.613 90.499 28.06 90.499 33.549 L 90.499 40.973 L 100.789 40.973 L 100.789 12.403 C 100.789 7.32 96.673 3.204 91.591 3.204 L 11.019 3.204 C 5.939 3.204 1.821 7.32 1.821 12.403 L 1.821 146.923 C 1.821 152.002 5.939 156.116 11.019 156.116 L 91.591 156.116 C 96.673 156.116 100.789 152.001 100.789 146.923 L 100.789 124.168 L 90.499 124.168 L 90.501 124.169 Z " fill-rule="evenodd" fill="rgb(0,125,197)"/><path d=" M 528.036 105.603 C 528.036 104.185 528.509 102.997 529.464 102.046 C 530.419 101.092 531.604 100.611 533.026 100.611 C 534.441 100.611 535.631 101.092 536.579 102.046 C 537.535 102.997 538.011 104.184 538.011 105.603 C 538.011 107.022 537.535 108.206 536.579 109.156 C 535.631 110.117 534.441 110.591 533.026 110.591 C 531.662 110.591 530.49 110.101 529.508 109.119 C 528.529 108.137 528.036 106.969 528.036 105.603 L 528.036 105.603 Z " fill-rule="evenodd" fill="rgb(247,147,29)"/><path d=" M 174.625 66.2 L 151.155 66.2 L 151.155 58.205 L 174.625 58.205 L 174.625 66.2 Z " fill-rule="evenodd" fill="rgb(0,125,197)"/><path d=" M 283.973 81.25 L 285.774 81.25 L 288.025 81.25 C 289.97 81.25 291.795 81.028 293.494 80.595 C 295.19 80.165 296.506 79.391 297.429 78.267 C 298.352 77.152 298.815 75.862 298.815 74.402 C 298.815 71.162 297.016 69.153 293.418 68.378 C 291.921 68.103 290.171 67.966 288.17 67.966 L 283.973 67.966 L 283.973 81.251 L 283.973 81.25 Z  M 283.973 109.454 L 273.628 109.454 L 273.628 58.791 L 288.025 58.791 C 291.22 58.791 293.809 58.94 295.779 59.237 C 297.753 59.535 299.79 60.32 301.891 61.601 C 303.99 62.876 305.703 64.67 307.025 66.972 C 308.349 69.276 309.013 71.709 309.013 74.265 C 309.013 76.775 308.461 79.147 307.36 81.385 C 306.261 83.621 304.612 85.538 302.414 87.136 C 300.713 88.461 298.491 89.372 295.741 89.874 C 293.796 90.237 291.27 90.42 288.17 90.42 L 285.922 90.42 L 283.973 90.42 L 283.973 109.455 L 283.973 109.454 Z " fill-rule="evenodd" fill="rgb(247,147,29)"/><path d=" M 316.208 109.453 L 316.208 58.79 L 326.551 58.79 L 326.551 79.056 L 346.339 79.056 L 346.339 58.79 L 356.535 58.79 L 356.535 109.453 L 346.339 109.453 L 346.339 88.227 L 326.551 88.227 L 326.551 109.453 L 316.208 109.453 Z " fill-rule="evenodd" fill="rgb(247,147,29)"/><path d=" M 581.831 99.092 C 582.84 100.845 584.215 102.243 585.954 103.283 C 587.694 104.324 589.604 104.843 591.682 104.843 C 593.734 104.843 595.604 104.33 597.298 103.304 C 598.995 102.278 600.338 100.883 601.333 99.114 C 602.331 97.346 602.825 95.407 602.825 93.298 C 602.825 91.188 602.321 89.24 601.313 87.458 C 600.301 85.673 598.932 84.263 597.21 83.221 C 595.487 82.181 593.599 81.661 591.549 81.661 C 589.469 81.661 587.574 82.18 585.865 83.221 C 584.158 84.263 582.802 85.673 581.807 87.458 C 580.812 89.24 580.314 91.187 580.314 93.298 C 580.314 95.407 580.822 97.339 581.831 99.093 L 581.831 99.092 Z  M 577.195 85.027 C 578.681 82.486 580.694 80.458 583.237 78.942 C 585.777 77.428 588.548 76.668 591.55 76.668 C 594.52 76.668 597.277 77.428 599.82 78.942 C 602.361 80.458 604.389 82.493 605.905 85.05 C 607.419 87.606 608.178 90.353 608.178 93.297 C 608.178 96.296 607.426 99.06 605.924 101.587 C 604.426 104.113 602.398 106.12 599.842 107.607 C 597.283 109.093 594.519 109.833 591.549 109.833 C 588.547 109.833 585.776 109.1 583.236 107.627 C 580.693 106.156 578.68 104.159 577.195 101.633 C 575.706 99.108 574.966 96.329 574.966 93.298 C 574.966 90.326 575.706 87.567 577.195 85.028 L 577.195 85.027 Z " fill-rule="evenodd" fill="rgb(247,147,29)"/><path d=" M 390.115 66.871 C 385.416 66.871 381.443 68.535 378.199 71.868 C 374.947 75.2 373.324 79.239 373.324 83.984 C 373.324 88.777 374.96 92.874 378.231 96.277 C 381.507 99.675 385.466 101.373 390.115 101.373 C 394.612 101.373 398.537 99.662 401.883 96.238 C 405.233 92.816 406.906 88.731 406.906 83.984 C 406.906 79.239 405.283 75.2 402.033 71.868 C 398.785 68.535 394.811 66.871 390.115 66.871 L 390.115 66.871 Z  M 390.115 57.696 C 397.26 57.696 403.369 60.285 408.44 65.466 C 413.516 70.646 416.049 76.911 416.049 84.258 C 416.049 91.559 413.5 97.768 408.404 102.88 C 403.306 107.995 397.21 110.547 390.114 110.547 C 382.969 110.547 376.835 108.005 371.713 102.915 C 366.59 97.825 364.029 91.607 364.029 84.257 C 364.029 76.866 366.552 70.587 371.601 65.431 C 376.647 60.276 382.817 57.694 390.115 57.694 L 390.115 57.696 Z " fill-rule="evenodd" fill="rgb(247,147,29)"/><path d=" M 373.388 139.543 C 374.242 138.842 374.668 137.806 374.668 136.437 C 374.668 135.105 374.242 134.097 373.388 133.415 C 372.538 132.728 371.312 132.388 369.708 132.388 L 365.182 132.413 L 365.182 140.597 L 369.708 140.597 C 371.311 140.597 372.538 140.245 373.388 139.543 L 373.388 139.543 Z  M 375.214 131.721 C 376.484 132.822 377.118 134.37 377.118 136.359 C 377.118 138.438 376.481 140.051 375.2 141.196 C 373.922 142.344 372.124 142.914 369.818 142.914 L 365.182 142.914 L 365.182 148.725 L 362.622 148.725 L 362.622 130.07 L 369.818 130.07 C 372.146 130.07 373.942 130.621 375.215 131.722 L 375.214 131.721 Z " fill-rule="evenodd" fill="rgb(96,97,99)"/><path d=" M 383.05 139.115 C 382.649 139.872 382.45 140.729 382.45 141.69 C 382.45 142.667 382.649 143.536 383.05 144.3 C 383.449 145.066 384.008 145.656 384.729 146.075 C 385.451 146.492 386.27 146.701 387.196 146.701 C 388.099 146.701 388.913 146.493 389.634 146.075 C 390.354 145.656 390.913 145.066 391.313 144.3 C 391.713 143.536 391.914 142.667 391.914 141.69 C 391.914 140.729 391.713 139.872 391.313 139.115 C 390.913 138.361 390.354 137.772 389.634 137.344 C 388.913 136.918 388.1 136.703 387.196 136.703 C 385.429 136.703 383.886 137.535 383.051 139.115 L 383.05 139.115 Z  M 390.939 135.451 C 392.033 136.055 392.884 136.896 393.498 137.973 C 394.111 139.047 394.418 140.276 394.418 141.663 C 394.418 143.047 394.111 144.283 393.498 145.367 C 392.884 146.45 392.033 147.295 390.939 147.898 C 389.845 148.502 388.598 148.806 387.195 148.806 C 385.772 148.806 384.517 148.503 383.423 147.898 C 382.329 147.295 381.478 146.455 380.864 145.38 C 380.254 144.306 379.944 143.067 379.944 141.663 C 379.944 140.276 380.254 139.047 380.864 137.973 C 381.478 136.896 382.329 136.055 383.423 135.451 C 384.517 134.848 385.772 134.545 387.195 134.545 C 388.598 134.545 389.845 134.848 390.939 135.451 L 390.939 135.451 Z " fill-rule="evenodd" fill="rgb(96,97,99)"/><path d=" M 396.122 134.626 L 398.707 134.626 L 402.651 146.275 L 406.541 134.626 L 409.126 134.626 L 413.047 146.275 L 416.939 134.626 L 419.495 134.626 L 414.297 148.725 L 411.713 148.725 L 407.822 137.638 L 403.931 148.725 L 401.345 148.725 L 396.122 134.626 Z " fill-rule="evenodd" fill="rgb(96,97,99)"/><path d=" M 432.45 140.729 C 432.379 139.452 431.95 138.443 431.17 137.704 C 430.387 136.966 429.359 136.599 428.079 136.599 C 426.833 136.599 425.801 136.97 424.974 137.717 C 424.147 138.464 423.655 139.469 423.495 140.729 L 432.45 140.729 Z  M 433.009 136.477 C 434.127 137.767 434.689 139.558 434.689 141.849 C 434.689 142.204 434.682 142.472 434.663 142.65 L 423.521 142.65 C 423.716 143.91 424.245 144.916 425.106 145.661 C 425.968 146.407 427.03 146.781 428.292 146.781 C 429.127 146.781 429.904 146.63 430.623 146.328 C 431.344 146.027 431.969 145.601 432.502 145.049 L 433.861 146.462 C 433.17 147.208 432.331 147.785 431.357 148.194 C 430.376 148.603 429.295 148.806 428.106 148.806 C 426.719 148.806 425.489 148.511 424.414 147.913 C 423.336 147.319 422.503 146.481 421.908 145.395 C 421.312 144.314 421.015 143.078 421.015 141.691 C 421.015 140.305 421.312 139.075 421.908 138.001 C 422.503 136.925 423.332 136.082 424.401 135.467 C 425.467 134.854 426.683 134.548 428.051 134.548 C 430.238 134.548 431.89 135.192 433.008 136.479 L 433.009 136.477 Z " fill-rule="evenodd" fill="rgb(96,97,99)"/><path d=" M 443.59 135.359 C 444.446 134.835 445.456 134.565 446.629 134.545 L 446.629 136.945 C 445.191 136.891 444.026 137.265 443.137 138.066 C 442.25 138.863 441.745 139.938 441.617 141.289 L 441.617 148.725 L 439.139 148.725 L 439.139 134.623 L 441.617 134.623 L 441.617 137.662 C 442.079 136.65 442.739 135.883 443.59 135.358 L 443.59 135.359 Z " fill-rule="evenodd" fill="rgb(96,97,99)"/><path d=" M 468.23 146.007 C 468.951 145.581 469.51 144.985 469.909 144.221 C 470.309 143.458 470.51 142.597 470.51 141.636 C 470.51 140.696 470.302 139.84 469.896 139.077 C 469.489 138.314 468.928 137.717 468.218 137.293 C 467.506 136.865 466.697 136.652 465.792 136.652 C 464.884 136.652 464.073 136.865 463.353 137.293 C 462.635 137.716 462.068 138.314 461.66 139.077 C 461.252 139.84 461.047 140.696 461.047 141.636 C 461.047 142.613 461.252 143.48 461.66 144.234 C 462.067 144.99 462.635 145.581 463.353 146.007 C 464.074 146.431 464.885 146.645 465.792 146.645 C 466.696 146.645 467.51 146.431 468.231 146.007 L 468.23 146.007 Z  M 469.79 135.452 C 470.819 136.056 471.62 136.901 472.188 137.984 C 472.757 139.067 473.041 140.309 473.041 141.718 C 473.041 143.101 472.761 144.333 472.202 145.408 C 471.643 146.482 470.852 147.317 469.83 147.91 C 468.808 148.507 467.641 148.805 466.325 148.805 C 465.135 148.805 464.085 148.556 463.178 148.058 C 462.275 147.561 461.562 146.851 461.048 145.928 L 461.048 148.725 L 458.571 148.725 L 458.571 128.95 L 461.048 128.95 L 461.048 137.426 C 461.562 136.502 462.27 135.791 463.165 135.294 C 464.065 134.794 465.098 134.547 466.272 134.547 C 467.585 134.547 468.76 134.85 469.79 135.453 L 469.79 135.452 Z " fill-rule="evenodd" fill="rgb(96,97,99)"/><path d=" M 480.249 153.175 C 479.515 153.726 478.647 154.004 477.652 154.004 C 477.048 154.004 476.498 153.911 476 153.734 C 475.503 153.557 475.023 153.284 474.561 152.91 L 475.627 150.964 C 476.249 151.411 476.881 151.632 477.521 151.632 C 478.586 151.632 479.387 151.028 479.919 149.817 L 480.451 148.568 L 474.615 134.626 L 477.228 134.626 L 481.703 145.926 L 485.942 134.626 L 488.473 134.626 L 482.024 150.725 C 481.581 151.809 480.987 152.625 480.249 153.175 L 480.249 153.175 Z " fill-rule="evenodd" fill="rgb(96,97,99)"/><path d=" M 497.748 130.069 L 512.326 130.069 L 512.326 132.415 L 506.302 132.415 L 506.302 148.726 L 503.743 148.726 L 503.743 132.415 L 497.748 132.415 L 497.748 130.069 Z " fill-rule="evenodd" fill="rgb(96,97,99)"/><path d=" M 523.213 145.939 C 524.021 145.38 524.504 144.639 524.665 143.716 L 524.665 142.302 L 520.534 142.302 C 519.413 142.302 518.584 142.471 518.042 142.807 C 517.5 143.148 517.228 143.68 517.228 144.408 C 517.228 145.138 517.505 145.712 518.056 146.139 C 518.607 146.567 519.342 146.78 520.267 146.78 C 521.424 146.78 522.403 146.499 523.212 145.939 L 523.213 145.939 Z  M 524.692 148.726 L 524.692 146.753 C 523.644 148.138 522.001 148.832 519.761 148.832 C 518.784 148.832 517.926 148.647 517.189 148.273 C 516.451 147.899 515.884 147.384 515.484 146.726 C 515.084 146.07 514.884 145.331 514.884 144.513 C 514.884 143.253 515.351 142.254 516.284 141.514 C 517.217 140.779 518.516 140.4 520.19 140.383 L 524.666 140.383 L 524.666 139.718 C 524.666 138.723 524.361 137.953 523.747 137.411 C 523.133 136.869 522.243 136.597 521.068 136.597 C 519.646 136.597 518.198 137.104 516.724 138.116 L 515.685 136.412 C 516.697 135.755 517.634 135.278 518.496 134.987 C 519.359 134.694 520.384 134.545 521.574 134.545 C 523.333 134.545 524.692 134.977 525.654 135.84 C 526.611 136.7 527.099 137.904 527.116 139.451 L 527.143 148.726 L 524.691 148.726 L 524.692 148.726 Z " fill-rule="evenodd" fill="rgb(96,97,99)"/><path d=" M 540.987 146.086 C 541.708 145.66 542.272 145.064 542.682 144.3 C 543.09 143.537 543.294 142.675 543.294 141.716 C 543.294 140.741 543.09 139.867 542.682 139.104 C 542.272 138.342 541.708 137.747 540.987 137.318 C 540.269 136.891 539.448 136.679 538.524 136.679 C 537.6 136.679 536.777 136.895 536.06 137.334 C 535.338 137.767 534.774 138.366 534.366 139.13 C 533.957 139.894 533.753 140.756 533.753 141.716 C 533.753 142.676 533.957 143.537 534.366 144.3 C 534.774 145.065 535.338 145.66 536.06 146.086 C 536.778 146.513 537.6 146.727 538.524 146.727 C 539.448 146.727 540.269 146.513 540.987 146.086 Z  M 545.772 128.951 L 545.772 148.724 L 543.294 148.724 L 543.294 145.927 C 542.763 146.87 542.047 147.591 541.149 148.098 C 540.252 148.605 539.208 148.856 538.017 148.856 C 536.685 148.856 535.507 148.552 534.487 147.938 C 533.465 147.326 532.671 146.473 532.099 145.38 C 531.531 144.287 531.248 143.039 531.248 141.635 C 531.248 140.248 531.531 139.019 532.099 137.942 C 532.67 136.869 533.464 136.03 534.487 135.426 C 535.507 134.823 536.676 134.519 537.992 134.519 C 539.199 134.519 540.257 134.766 541.164 135.263 C 542.07 135.762 542.783 136.483 543.296 137.424 L 543.296 128.95 L 545.774 128.95 L 545.772 128.951 Z " fill-rule="evenodd" fill="rgb(96,97,99)"/><path d=" M 564.298 134.626 L 564.298 148.725 L 561.792 148.725 L 561.792 145.739 C 560.869 147.749 559.128 148.768 556.568 148.805 C 554.936 148.805 553.655 148.322 552.732 147.35 C 551.806 146.384 551.345 145.047 551.345 143.342 L 551.345 134.626 L 553.85 134.626 L 553.85 142.675 C 553.85 143.867 554.173 144.794 554.823 145.459 C 555.474 146.126 556.366 146.46 557.503 146.46 C 558.816 146.443 559.86 145.975 560.631 145.061 C 561.405 144.146 561.792 142.978 561.792 141.555 L 561.792 134.625 L 564.298 134.625 L 564.298 134.626 Z " fill-rule="evenodd" fill="rgb(96,97,99)"/><path d=" M 571.559 146.327 C 571.836 146.61 571.972 146.975 571.972 147.418 C 571.972 147.864 571.836 148.232 571.559 148.526 C 571.283 148.819 570.943 148.965 570.533 148.965 C 570.123 148.965 569.779 148.819 569.494 148.526 C 569.211 148.232 569.068 147.864 569.068 147.418 C 569.068 146.975 569.211 146.61 569.494 146.327 C 569.779 146.043 570.123 145.9 570.533 145.9 C 570.943 145.9 571.283 146.043 571.559 146.327 Z " fill-rule="evenodd" fill="rgb(96,97,99)"/><path d=" M 582.634 136.758 C 581.71 136.758 580.888 136.962 580.169 137.371 C 579.448 137.779 578.884 138.357 578.477 139.105 C 578.066 139.849 577.862 140.712 577.862 141.69 C 577.862 142.667 578.061 143.529 578.462 144.274 C 578.862 145.021 579.413 145.603 580.113 146.021 C 580.817 146.436 581.621 146.647 582.526 146.647 C 583.432 146.647 584.247 146.497 584.978 146.194 C 585.708 145.891 586.311 145.458 586.789 144.887 L 588.203 146.327 C 587.562 147.124 586.749 147.74 585.764 148.166 C 584.778 148.593 583.664 148.804 582.418 148.804 C 581.051 148.804 579.832 148.504 578.768 147.898 C 577.699 147.295 576.871 146.455 576.277 145.38 C 575.68 144.307 575.384 143.076 575.384 141.69 C 575.384 140.303 575.679 139.066 576.277 137.985 C 576.872 136.901 577.7 136.057 578.768 135.451 C 579.832 134.848 581.051 134.548 582.418 134.548 C 583.608 134.548 584.681 134.728 585.628 135.094 C 586.58 135.455 587.376 135.984 588.017 136.678 L 586.655 138.383 C 585.535 137.299 584.193 136.758 582.632 136.758 L 582.634 136.758 Z " fill-rule="evenodd" fill="rgb(96,97,99)"/><path d=" M 595.6 137.345 C 594.879 137.772 594.32 138.361 593.922 139.116 C 593.522 139.873 593.321 140.73 593.321 141.691 C 593.321 142.668 593.522 143.537 593.922 144.301 C 594.32 145.067 594.879 145.657 595.6 146.076 C 596.321 146.493 597.141 146.702 598.066 146.702 C 598.97 146.702 599.784 146.494 600.505 146.076 C 601.224 145.657 601.786 145.067 602.184 144.301 C 602.584 143.537 602.785 142.668 602.785 141.691 C 602.785 140.73 602.584 139.873 602.184 139.116 C 601.786 138.362 601.224 137.773 600.505 137.345 C 599.784 136.919 598.971 136.704 598.066 136.704 C 597.141 136.704 596.321 136.919 595.6 137.345 Z  M 601.812 135.451 C 602.903 136.055 603.754 136.896 604.369 137.973 C 604.982 139.047 605.29 140.276 605.29 141.663 C 605.29 143.047 604.982 144.283 604.369 145.367 C 603.754 146.45 602.903 147.295 601.812 147.898 C 600.718 148.502 599.469 148.806 598.066 148.806 C 596.644 148.806 595.388 148.503 594.296 147.898 C 593.202 147.295 592.35 146.455 591.734 145.38 C 591.125 144.306 590.815 143.067 590.815 141.663 C 590.815 140.276 591.125 139.047 591.734 137.973 C 592.349 136.896 593.201 136.055 594.296 135.451 C 595.387 134.848 596.644 134.545 598.066 134.545 C 599.47 134.545 600.718 134.848 601.812 135.451 L 601.812 135.451 Z " fill-rule="evenodd" fill="rgb(96,97,99)"/><path d=" M 422.948 109.453 L 422.948 58.79 L 434.488 58.79 L 457.576 95.763 L 457.576 58.79 L 467.923 58.79 L 467.923 109.453 L 456.477 109.479 L 433.292 72.623 L 433.292 109.453 L 422.948 109.453 Z " fill-rule="evenodd" fill="rgb(247,147,29)"/><path d=" M 478.414 109.453 L 478.414 58.79 L 518.292 58.79 L 518.292 67.965 L 488.758 67.965 L 488.758 79.604 L 518.292 79.604 L 518.292 88.641 L 488.758 88.641 L 488.758 100.28 L 518.292 100.28 L 518.292 109.453 L 478.414 109.453 Z " fill-rule="evenodd" fill="rgb(247,147,29)"/><path d=" M 566.118 108.898 C 564.436 109.522 562.601 109.833 560.612 109.833 C 557.253 109.833 554.318 109.1 551.807 107.627 C 549.295 106.156 547.364 104.182 546.011 101.699 C 544.658 99.218 543.981 96.492 543.981 93.518 C 543.981 90.281 544.658 87.384 546.011 84.826 C 547.364 82.272 549.251 80.273 551.675 78.829 C 554.095 77.39 556.853 76.668 559.941 76.668 C 561.843 76.668 563.602 76.921 565.226 77.428 C 566.845 77.932 568.28 78.57 569.527 79.343 L 567.474 84.203 C 565.066 82.508 562.617 81.661 560.12 81.661 C 558.218 81.661 556.443 82.173 554.793 83.198 C 553.144 84.224 551.829 85.622 550.848 87.388 C 549.867 89.157 549.376 91.097 549.376 93.207 C 549.376 95.437 549.829 97.433 550.736 99.203 C 551.642 100.972 552.937 102.354 554.614 103.349 C 556.294 104.345 558.234 104.844 560.431 104.844 C 562.008 104.844 563.426 104.606 564.689 104.13 C 565.953 103.655 567.014 103.046 567.877 102.301 L 570.062 106.938 C 569.111 107.622 567.795 108.276 566.117 108.899 L 566.118 108.898 Z " fill-rule="evenodd" fill="rgb(247,147,29)"/></g></g></g><path d=" M 2 189.2 L 608 189.2 L 608 -29.878 L 2 -29.878 L 2 189.2 Z " fill-rule="evenodd" fill="none"/></g></g></svg>